<svg xmlns="http://www.w3.org/2000/svg" width="740" height="417" viewBox="0 0 740 417"><title>ProtectYourselfAtHome_Color_740x417</title><rect width="740" height="417" fill="#f2f2f2"/><rect x="174.99999" y="350" width="333" height="18" rx="8.72896" ry="8.72896" opacity="0.1"/><g opacity="0.75"><path d="M649,145.21429c0,66.24385-47.7562,124.44588-125,167.85714-77.2438-43.41126-125-101.61329-125-167.85714v-62.5c31.39948,0,59.80324-8.52645,80.35714-22.32143C490.77587,52.11575,506.55571,47,523.99982,47c17.44431.00032,33.22415,5.11607,44.643,13.39286C589.19667,74.18777,617.60048,82.71429,649,82.71429Z" fill="#ffd679"/><path d="M524.00015,304.6136c-36.79271-21.15335-65.58551-45.15166-85.62407-71.37308-21.24885-27.80546-32.023-57.42187-32.023-88.02634V89.91705c29.06315-1.18624,56.20907-9.39654,77.10177-23.41955l.21793-.15151c10.66894-7.73351,24.991-11.99305,40.32736-11.99305,15.33562,0,29.65734,4.25954,40.32772,11.99305l.107.07827.10986.07324c20.89269,14.023,48.039,22.23331,77.10248,23.41955v55.29713c0,30.60447-10.77378,60.22088-32.02263,88.02634C589.58566,259.46194,560.79286,283.46025,524.00015,304.6136Z" fill="#fce1ac"/><path d="M524.00015,61.70588c13.79754,0,26.58692,3.76192,36.0129,10.59355l.21039.15438.24342.16229c20.13011,13.511,46.12678,22.01,73.82741,24.22234v48.37574c0,28.95365-10.2654,57.06787-30.51183,83.56144-18.77011,24.56127-45.59757,47.19885-79.78229,67.33111Z" fill="#ffd679"/></g><path d="M311.06538,131.12407l-10.09345,10.09344-23.5567-19.55411h4.37216a8.64463,8.64463,0,0,0,6.31714-2.74349l3.13783-3.359" fill="#8e562e"/><rect x="249.99999" y="276" width="15" height="63" fill="#757575"/><rect x="417.99999" y="217" width="15" height="126" fill="#757575"/><circle cx="215.49999" cy="351.5" r="7.5"/><circle cx="257.49999" cy="351.5" r="7.5"/><circle cx="299.23269" cy="350.85669" r="7.64331"/><path d="M359.24579,114.346l-2.82191-5.69521a36.91992,36.91992,0,1,0-5.58372,10.2161l3.44169,1.16107A4.08325,4.08325,0,0,0,359.24579,114.346Z" fill="#8e562e"/><path d="M350.84016,118.86691l-3.51284-1.18508a5.72919,5.72919,0,0,0-7.26415,3.5993l-10.86344-3.66485a11.45837,11.45837,0,0,1-7.1986-14.52829l4.88646-14.48459a15.27784,15.27784,0,0,1,19.37105-9.59813l3.62115,1.22162A11.465,11.465,0,0,0,357.20948,58.5a11.45838,11.45838,0,0,1-14.52829,7.1986l-9.05287-3.054a36.1149,36.1149,0,0,0-45.40407,47.19831l1.121.37817a17.18757,17.18757,0,0,0,21.79244-10.79789,3.81947,3.81947,0,0,1-2.39954-4.84277l2.44324-7.24229a3.82165,3.82165,0,1,1,7.24229,2.44323l-11.60534,34.4009a5.72918,5.72918,0,0,0,3.59929,7.26415l18.10574,6.10807a15.27783,15.27783,0,0,0,19.37105-9.59813l3.054-9.05287Z" fill="#383838"/><path d="M323.86694,82.69712l-8.58659,2.14642a3.64408,3.64408,0,0,1,.74408.0947,3.7175,3.7175,0,0,1,1.69717,1.26191l6.60812-1.65191Z" fill="#107c10"/><path d="M312.61331,85.51065,306.815,86.9601c.161.66244.3121,1.288.44785,1.85485l3.73536-.934.18333-.543A3.72727,3.72727,0,0,1,312.61331,85.51065Z" fill="#107c10"/><path d="M326.56478,82.02255l-2.69784.67457.46278,1.85112,2.69783-.67458.1115-.18567a3.79943,3.79943,0,0,1-.34148-1.52549Z" fill="#f7d7c4"/><path d="M326.79757,82.1625a3.79943,3.79943,0,0,0,.34148,1.52549l.58267-.97127Z" fill="#383838"/><path d="M303.63484,87.755a.95484.95484,0,0,0,.23139,1.881.83878.83878,0,0,0,.23139-.02985l1.36268-.34056c-.12783-.53228-.28271-1.17793-.44692-1.85531Z" fill="#f7894a"/><path d="M305.01338,87.41028c.16421.67738.31909,1.323.44692,1.85531l1.80259-.45064c-.13575-.56681-.2869-1.19241-.44785-1.85485Z" fill="#eba300"/><path d="M329.224,198.92857a13.4929,13.4929,0,0,1-9.58909-23.00255l27.71666-28.82188A13.37517,13.37517,0,0,1,356.99227,143H370.3511a13.50084,13.50084,0,1,1,.19405,27h-7.7529l-23.83594,24.7861A13.46227,13.46227,0,0,1,329.224,198.92857Z" fill="#8e562e"/><path d="M286,335h32V238.28662A15.28662,15.28662,0,0,0,302.71336,223H196v32h90Z" fill="#0063b1"/><path d="M193.44448,352a14.99137,14.99137,0,0,1,15-15h97.5a14.99137,14.99137,0,0,1,15,15Z" fill="#1f1f1f"/><path d="M361.75,358a14.99137,14.99137,0,0,1,15-15h97.5a14.99137,14.99137,0,0,1,15,15Z" fill="#1f1f1f"/><path d="M375.66582,272.68153l-22.92994,22.92993L280.12441,223H234.26454l60.963-20.321a13.34909,13.34909,0,0,1,13.6606,3.22483Z" fill="#0078d7"/><path d="M354.64671,297.84076l11.465,11.465,38.21656-38.21656-.88752-.88751a9.55412,9.55412,0,0,0-13.51159,0L387.13078,273h-11.465l-22.92994,22.92994Z" fill="#bb9167"/><rect x="359.62989" y="289.11657" width="54.04638" height="4.05348" transform="translate(-92.62135 358.67891) rotate(-45)" fill="#d8b094"/><rect x="327.99999" y="202" width="195" height="15" fill="#d8b094"/><path d="M465,179h23a0,0,0,0,1,0,0v19.16667A3.83333,3.83333,0,0,1,484.16665,202H468.83332A3.83333,3.83333,0,0,1,465,198.16667V179A0,0,0,0,1,465,179Z" fill="#f03a17"/><path d="M492.35042,179.00626h-7.64331v7.64331a7.64331,7.64331,0,1,0,7.64331-7.64331Zm0,11.465a3.82166,3.82166,0,1,1,3.82165-3.82166A3.8217,3.8217,0,0,1,492.35042,190.47123Z" fill="#f03a17"/><path d="M197.95881,201.8121a80.20863,80.20863,0,0,1,80.25478-80.25478l12.27684,43.94905L261.828,222.83121H198.77069" fill="#e5e5e5"/><path d="M257,223.3758A13.3758,13.3758,0,0,0,243.62419,210H200.03183l-1.91082-8h45.85987A21.01912,21.01912,0,0,1,265,223.01911V257h-8Z" fill="#1f1f1f"/><path d="M151.38142,111.70755l40.34942,161.39768A3.82166,3.82166,0,0,0,195.43839,276H286V255H211.54544L174.29051,105.98028a3.82164,3.82164,0,0,0-4.63444-2.78066l-15.494,3.87349A3.82166,3.82166,0,0,0,151.38142,111.70755Z" fill="#1f1f1f"/><path d="M327.89512,201.8121a15.239,15.239,0,0,1-10.80906-4.47757L267.40453,147.653a15.28631,15.28631,0,0,1,21.61811-21.6181l49.68153,49.68152a15.28663,15.28663,0,0,1-10.809,26.09568Z" fill="#f7630c"/><rect x="327.99999" y="175" width="33" height="27" fill="#f7630c"/><path d="M340,352.16667A9.1614,9.1614,0,0,0,330.83332,343H326l-8-8H286v20h54S339.9236,352.16667,340,352.16667Z" fill="#bb9167"/><rect x="285.99999" y="355" width="54" height="4" fill="#d8b094"/><path d="M481.07122,178.88217A12.64551,12.64551,0,0,0,493.724,166.22939a13.16987,13.16987,0,0,0-5.06111-10.12223l-5.06111-5.06111a4.38994,4.38994,0,0,1-1.687-3.37408,4.21517,4.21517,0,0,0-4.21759,4.2176,4.39,4.39,0,0,0,1.687,3.37407l2.53056,2.53056a4.39,4.39,0,0,1,1.687,3.37407,4.21518,4.21518,0,0,1-4.2176,4.2176,13.48854,13.48854,0,0,0-13.4963,13.4963" fill="#a6a6a6" opacity="0.3"/><polygon points="455.921 143 437.767 197.037 396.846 197.037 415 143 455.921 143" fill="#a6a6a6"/><path d="M458.75614,143.94518a3.04647,3.04647,0,0,1,1.92449,3.8603l-17.18111,51.14244a3.0191,3.0191,0,0,1-3.8189,1.90946l-.00413-.00138a3.01911,3.01911,0,0,1-1.90945-3.8189L455.92059,143Z" fill="#757575"/><circle cx="344.63796" cy="106.72531" r="4.27109" fill="#1f1f1f"/><rect x="377.99999" y="196" width="63" height="6" fill="#383838"/><polygon points="435.911 190 450.357 147 417.876 147 403.43 190 435.911 190" fill="#3a96dd"/><polygon points="450.357 147 417.876 147 403.43 190 450.357 147" fill="#83beec" opacity="0.5"/><path d="M408.22221,196a20.80266,20.80266,0,0,0-20.77778-21H361v27h17v-6Z" fill="#8e562e"/><rect x="417.99999" y="217" width="15.00001" height="10" fill="#383838"/><rect x="250" y="276" width="15.00001" height="6" fill="#383838"/></svg>